<?xml version="1.0" encoding="utf-8"?>
<!-- Generator: Adobe Illustrator 27.0.0, SVG Export Plug-In . SVG Version: 6.00 Build 0)  -->
<svg version="1.1" id="telegram" xmlns="http://www.w3.org/2000/svg" xmlns:xlink="http://www.w3.org/1999/xlink" x="0px" y="0px"
	 viewBox="0 0 50 50" style="enable-background:new 0 0 50 50;" xml:space="preserve">
<style type="text/css">
	.st0{fill:#FFFFFF;stroke:#000000;stroke-width:0.5;stroke-miterlimit:10;}
</style>
<path d="M47.7,1L1.9,19C1,19.4,1,20.6,1.8,21L12,25.6c0.3,0.1,0.5,0.4,0.6,0.6l4.4,13.8c0.2,0.7,1.1,1,1.7,0.5l7.6-5.7
	c0.4-0.3,0.9-0.3,1.2,0L40,43.4c0.6,0.4,1.5,0.1,1.6-0.7l7.5-40.6C49.3,1.4,48.5,0.7,47.7,1z M19.9,27.5l-1.4,7.8L15,24.2l24.2-15
	L19.9,27.5z M8.1,29.6c-0.4-0.4-1-0.4-1.4,0l-5.6,5.6c-0.4,0.4-0.4,1,0,1.4c0.4,0.4,1,0.4,1.4,0L8.1,31C8.5,30.6,8.5,30,8.1,29.6z
	 M11,41.7l-5.6,5.6c-0.4,0.4-0.4,1,0,1.4c0.4,0.4,1,0.4,1.4,0l5.6-5.6c0.4-0.4,0.4-1,0-1.4C12,41.4,11.4,41.4,11,41.7z"/>
<path d="M27.3,41.7l-5.6,5.6c-0.4,0.4-0.4,1,0,1.4c0.4,0.4,1,0.4,1.4,0l5.6-5.6c0.4-0.4,0.4-1,0-1.4C28.3,41.4,27.7,41.4,27.3,41.7z
	"/>
<g>
	<path class="st0" d="M47.7,1L1.9,19C1,19.4,1,20.6,1.8,21L12,25.6c0.3,0.1,0.5,0.4,0.6,0.6l4.4,13.8c0.2,0.7,1.1,1,1.7,0.5l7.6-5.7
		c0.4-0.3,0.9-0.3,1.2,0L40,43.4c0.6,0.4,1.5,0.1,1.6-0.7l7.5-40.6C49.3,1.4,48.5,0.7,47.7,1z M19.9,27.5l-1.4,7.8L15,24.2l24.2-15
		L19.9,27.5z M8.1,29.6c-0.4-0.4-1-0.4-1.4,0l-5.6,5.6c-0.4,0.4-0.4,1,0,1.4c0.4,0.4,1,0.4,1.4,0L8.1,31C8.5,30.6,8.5,30,8.1,29.6z
		 M11,41.7l-5.6,5.6c-0.4,0.4-0.4,1,0,1.4c0.4,0.4,1,0.4,1.4,0l5.6-5.6c0.4-0.4,0.4-1,0-1.4C12,41.4,11.4,41.4,11,41.7z"/>
	<path class="st0" d="M27.3,41.7l-5.6,5.6c-0.4,0.4-0.4,1,0,1.4c0.4,0.4,1,0.4,1.4,0l5.6-5.6c0.4-0.4,0.4-1,0-1.4
		C28.3,41.4,27.7,41.4,27.3,41.7z"/>
</g>
</svg>
